<svg width="16" height="18" viewBox="0 0 16 18" fill="none" xmlns="http://www.w3.org/2000/svg">
<g id="Frame" clip-path="url(#clip0_4_267)">
<path id="Vector" d="M15.9916 9.15592C15.9916 8.4731 15.9372 7.97481 15.8194 7.45808H8.15942V10.54H12.6556C12.565 11.3059 12.0755 12.4594 10.9877 13.2344L10.9724 13.3376L13.3944 15.2475L13.5622 15.2645C15.1032 13.8158 15.9916 11.6842 15.9916 9.15592Z" fill="#4285F4"/>
<path id="Vector_2" d="M8.15941 17.2761C10.3622 17.2761 12.2114 16.5379 13.5622 15.2645L10.9877 13.2344C10.2988 13.7235 9.3741 14.0649 8.15941 14.0649C6.00195 14.0649 4.17082 12.6162 3.51807 10.6139L3.4224 10.6221L0.904028 12.6061L0.871094 12.6992C2.21271 15.4121 4.96849 17.2761 8.15941 17.2761Z" fill="#34A853"/>
<path id="Vector_3" d="M3.51818 10.6139C3.34594 10.0971 3.24627 9.54344 3.24627 8.97137C3.24627 8.39923 3.34594 7.84561 3.50911 7.32888L3.50455 7.21883L0.954628 5.20305L0.871199 5.24344C0.318256 6.36921 0.000976562 7.63339 0.000976562 8.97137C0.000976562 10.3093 0.318256 11.5735 0.871199 12.6992L3.51818 10.6139Z" fill="#FBBC05"/>
<path id="Vector_4" d="M8.1594 3.87782C9.69137 3.87782 10.7248 4.55142 11.314 5.11433L13.6165 2.82591C12.2024 1.48793 10.3622 0.666687 8.1594 0.666687C4.96848 0.666687 2.21271 2.53062 0.871094 5.24347L3.50901 7.3289C4.17082 5.32655 6.00194 3.87782 8.1594 3.87782Z" fill="#EB4335"/>
</g>
<defs>
<clipPath id="clip0_4_267">
<rect width="16" height="16.6667" fill="white" transform="translate(0 0.666672)"/>
</clipPath>
</defs>
</svg>
