<svg width="25" height="24" viewBox="0 0 25 24" fill="none" xmlns="http://www.w3.org/2000/svg">
<g id="icon facebook" clip-path="url(#clip0_4_276)">
<path id="Vector" d="M12.5 0C5.8724 0 0.5 5.3724 0.5 12C0.5 18.6276 5.8724 24 12.5 24C19.1276 24 24.5 18.6276 24.5 12C24.5 5.3724 19.1276 0 12.5 0Z" fill="white"/>
<path id="Vector_2" d="M14.2285 16.8578H17.4851L17.9966 13.5496H14.2285V11.7414C14.2285 10.3673 14.6778 9.14861 15.9632 9.14861H18.0287V6.26199C17.6657 6.21292 16.8981 6.10596 15.4479 6.10596C12.4191 6.10596 10.6435 7.7053 10.6435 11.3494V13.5503H7.52979V16.8584H10.6429V25.9512C11.2595 26.043 11.8843 26.106 12.5254 26.106C13.1048 26.106 13.6705 26.0531 14.2285 25.9776V16.8578Z" fill="#415792"/>
</g>
<defs>
<clipPath id="clip0_4_276">
<rect width="24" height="24" fill="white" transform="translate(0.5)"/>
</clipPath>
</defs>
</svg>
